<svg xmlns="http://www.w3.org/2000/svg" viewBox="0 0 446 468" version="1.1">
<path d="M 240.450 53.399 C 219.585 57.373, 199.154 67.331, 183.584 81.116 C 181.338 83.105, 178.150 85.450, 176.500 86.328 C 171.092 89.206, 148.168 113.365, 136.486 128.500 C 131.895 134.448, 118.643 160.292, 115.690 169.057 C 109.199 188.323, 110.039 194, 119.378 194 C 123.327 194, 127.056 191.275, 129.773 186.404 C 131.742 182.875, 138.520 172.212, 141.500 167.956 C 148.252 158.313, 181.465 123.512, 187.305 119.961 C 189.039 118.907, 192.492 116.198, 194.979 113.943 C 201.149 108.346, 212.746 99.684, 217 97.493 C 218.925 96.502, 222.075 94.466, 224 92.969 C 225.925 91.472, 228.400 89.988, 229.500 89.671 C 234.601 88.201, 241.990 85.236, 244.263 83.747 C 245.642 82.843, 250.599 80.560, 255.279 78.673 C 287.549 65.661, 276.345 46.564, 240.450 53.399 M 269 211.592 C 238.933 225.487, 226.580 277.709, 242.527 323.506 C 245.562 332.220, 252.842 344.937, 255.346 345.897 C 255.915 346.115, 257.533 347.496, 258.940 348.966 C 277.446 368.285, 307.570 360.741, 320.522 333.542 C 350.475 270.640, 316.295 189.737, 269 211.592" stroke="none" fill="#000000" fill-rule="evenodd"/>
</svg>