<svg xmlns="http://www.w3.org/2000/svg" viewBox="0 0 384 426" version="1.1">
<path d="M 162 141.026 C 158.975 141.539, 152.020 142.687, 146.544 143.576 C 118.120 148.191, 100.204 161.825, 106.518 174.035 C 108.983 178.801, 124.128 179.281, 151 175.443 C 163.679 173.633, 168.621 173.804, 198.938 177.107 C 209.988 178.310, 219.605 179.910, 222.938 181.100 C 225.997 182.191, 232.550 183.954, 237.500 185.017 C 242.450 186.080, 248.525 187.466, 251 188.096 C 262.270 190.968, 283.899 200.318, 289.216 204.617 C 293.369 207.976, 305.970 210.669, 309.905 209.039 C 319.454 205.084, 309.027 190.293, 286 175.128 C 282.975 173.136, 280.162 170.982, 279.750 170.341 C 277.452 166.774, 244.362 151.388, 231.500 147.906 C 213.245 142.963, 173.668 139.046, 162 141.026 M 134.500 254.614 C 81.493 263.431, 65 273.611, 65 297.509 C 65 315.962, 84.726 320.260, 120 309.493 C 136.075 304.586, 170.445 303.544, 189.784 307.377 C 225.133 314.385, 237.339 312.914, 243.551 300.901 C 257.161 274.583, 188.826 245.578, 134.500 254.614" stroke="none" fill="#000000" fill-rule="evenodd"/>
</svg>